<?xml version="1.0" encoding="UTF-8"?>
<svg xmlns="http://www.w3.org/2000/svg" version="1.1" viewBox="0 0 612 792">
  <!-- Generator: Adobe Illustrator 30.0.0, SVG Export Plug-In . SVG Version: 2.1.1 Build 123)  -->
  <defs>
    <style>
      .st0 {
        fill: #8b3c46;
      }

      .st1 {
        fill: #fff;
      }

      .st2 {
        fill: none;
        stroke: #e7c8a0;
        stroke-miterlimit: 10;
        stroke-width: 15px;
      }

      .st3 {
        fill: #8198c2;
      }
    </style>
  </defs>
  <g id="Capa_3">
    <path class="st2" d="M154.41,436.48c135.69-14.64,284.59-8.88,288.54,8.97,6.63,30.03-295,102.45-288.54,132.15,3.44,15.82,131.31,24.95,325.01,2.75"/>
  </g>
  <g id="Capa_1">
    <g id="y">
      <path class="st0" d="M565.37,432.49c0,79.2-85.95,158.49-85.95,158.49,0,0-85.95-79.29-85.95-158.49,0-47.47,38.48-85.95,85.95-85.95s85.95,38.48,85.95,85.95Z"/>
      <circle class="st1" cx="479.42" cy="432.49" r="38.71"/>
      <path class="st1" d="M513.77,493.14l-22.45,25.49v31.83h-23.61v-31.83l-22.62-25.49h23.96l10.24,11.8,10.99-11.8h23.5Z"/>
    </g>
    <g id="X">
      <path class="st3" d="M240.35,286.96c0,79.2-85.95,158.49-85.95,158.49,0,0-85.95-79.29-85.95-158.49,0-47.47,38.48-85.95,85.95-85.95s85.95,38.48,85.95,85.95Z"/>
      <path class="st1" d="M186.18,338.68l-19.98,27.88,20.65,29.44h-24.03l-9.45-13.9-7.99,13.9h-23.63l21.1-28.97-19.98-28.34h23.8l8.95,13.02,7.2-13.02h23.35Z"/>
      <circle class="st1" cx="154.41" cy="286.96" r="38.71"/>
    </g>
    <path class="st3" d="M154.41,455.81"/>
  </g>
</svg>